HIERARCHY
ROOT Hips
{
    OFFSET 0.000000 0.000000 0.000000
    CHANNELS 6 Xposition Yposition Zposition Zrotation Xrotation Yrotation
        JOINT Chest
        {
            OFFSET -0.000000 26.747992 -0.000000
            CHANNELS 3 Zrotation Xrotation Yrotation
            JOINT Neck
            {
                OFFSET -0.000000 19.168715 0.000000
                CHANNELS 3 Zrotation Xrotation Yrotation
                JOINT Head
                {
                    OFFSET -0.000000 10.083335 0.000000
                    CHANNELS 3 Zrotation Xrotation Yrotation
                    End Site
                    {
                        OFFSET -0.000000 15.583343 0.000000
                    }
                }
            }
            JOINT LeftCollar
            {
                OFFSET -0.000000 19.168715 0.000000
                CHANNELS 3 Zrotation Xrotation Yrotation
                JOINT LeftShoulder
                {
                    OFFSET 19.500000 -0.000000 0.000000
                    CHANNELS 3 Zrotation Xrotation Yrotation
                    JOINT LeftElbow
                    {
                        OFFSET 19.022890 0.000000 0.000000
                        CHANNELS 3 Zrotation Xrotation Yrotation
                        JOINT LeftWrist
                        {
                            OFFSET 24.768559 0.000000 0.000000
                            CHANNELS 3 Zrotation Xrotation Yrotation
                            End Site
                            {
                                OFFSET 0.000000 -13.750003 0.000000
                            }
                        }
                    }
                }
            }
            JOINT RightCollar
            {
                OFFSET -0.000000 19.168715 0.000000
                CHANNELS 3 Zrotation Xrotation Yrotation
                JOINT RightShoulder
                {
                    OFFSET -19.500000 0.000000 0.000000
                    CHANNELS 3 Zrotation Xrotation Yrotation
                    JOINT RightElbow
                    {
                        OFFSET -19.022890 0.000000 0.000000
                        CHANNELS 3 Zrotation Xrotation Yrotation
                        JOINT RightWrist
                        {
                            OFFSET -24.768559 0.000000 0.000000
                            CHANNELS 3 Zrotation Xrotation Yrotation
                            End Site
                            {
                                OFFSET -0.000000 -13.750003 0.000000
                            }
                        }
                    }
                }
            }
        }
    JOINT LeftHip
    {
        OFFSET 11.000002 0.000000 0.000000
        CHANNELS 3 Zrotation Xrotation Yrotation
        JOINT LeftKnee
        {
            OFFSET -0.000000 -39.837296 0.000000
            CHANNELS 3 Zrotation Xrotation Yrotation
            JOINT LeftAnkle
            {
                OFFSET -0.000000 -38.248398 0.000000
                CHANNELS 3 Zrotation Xrotation Yrotation
                End Site
                {
                    OFFSET -0.000000 -4.583334 15.583343
                }
            }
        }
    }
    JOINT RightHip
    {
        OFFSET -11.000002 0.000000 0.000000
        CHANNELS 3 Zrotation Xrotation Yrotation
        JOINT RightKnee
        {
            OFFSET -0.000000 -39.837296 0.000000
            CHANNELS 3 Zrotation Xrotation Yrotation
            JOINT RightAnkle
            {
                OFFSET -0.000000 -38.248398 0.000000
                CHANNELS 3 Zrotation Xrotation Yrotation
                End Site
                {
                    OFFSET -0.000000 -4.583334 15.583343
                }
            }
        }
    }
}
MOTION
Frames:    13
Frame Time:    0.010000
-71.322990    85.510437    -61.751003    8.213973    9.004093    -82.136787    -6.224086    5.131495    15.876661    5.878532    -18.541523    18.895283    7.406129    -24.477484    19.147001    -21.224993    -0.522058    2.934918    -1.983520    20.593348    -57.473503    8.264178    -1.559796    -21.799391    106.089180    33.020473    91.835014    10.446674    2.643208    28.530304    12.440485    11.785775    55.638115    6.592141    2.175158    37.023994    -51.724529    -12.517561    -19.581554    15.385104    -22.658216    6.204593    0.972830    4.202743    10.094208    -7.916512    9.309745    2.425492    2.707608    0.995413    -9.310553    -4.468480    13.424667    -5.572541    16.900932    -11.586554    4.602878    
-71.361099    85.558434    -61.608402    8.336160    9.152770    -82.500916    -4.955012    4.507836    15.804801    -3.541134    -13.560203    13.188023    2.470701    -29.929089    14.369638    -23.042246    0.344153    -5.728301    -3.674827    23.834049    -54.274765    7.318262    -1.306803    -21.889410    106.547691    32.982632    91.846939    9.929031    2.255470    24.340502    11.586587    12.453220    52.615459    6.096495    1.927374    36.702919    -50.911488    -12.763860    -19.694437    15.608250    -22.639683    6.571241    0.910753    4.254872    10.204707    -7.857994    9.189770    2.309995    2.614430    0.686444    -8.863574    -4.710638    13.752959    -4.172686    16.771584    -11.375672    3.839918    
-71.337715    85.533401    -61.511391    8.392865    9.165654    -82.879646    -5.175682    4.468671    15.943398    -3.681712    -13.454537    13.263008    3.437999    -30.547882    14.632942    -22.967470    0.758858    -5.786293    -3.544423    23.173674    -54.376644    7.871063    -1.505469    -21.516932    105.990089    32.866695    92.185860    9.752472    2.137390    24.670031    11.353284    12.416832    52.963844    6.012049    1.930044    36.280293    -50.627029    -12.967751    -19.954050    15.719533    -22.415348    6.304227    0.818825    4.031321    10.748926    -7.846780    9.199332    2.393035    2.435828    0.376888    -8.461283    -4.901101    14.340236    -3.326317    15.563591    -12.048649    4.057861    
-71.345390    85.546532    -61.428040    8.467924    9.196708    -83.167015    -5.392283    4.429057    16.048916    -3.726947    -13.541165    13.288195    3.544134    -30.651571    14.701245    -22.865915    0.977789    -5.913954    -3.519609    22.721628    -54.359772    8.166851    -1.564943    -21.215582    105.652092    32.808113    92.593895    9.559046    2.096851    24.904556    11.148348    12.296704    53.274078    5.909765    1.904420    35.963428    -50.308846    -13.125571    -20.052839    15.811107    -22.310915    6.287550    0.761437    3.934398    11.068441    -7.806206    9.175136    2.366006    2.297201    0.121672    -8.135977    -5.066366    14.730687    -2.514404    15.102504    -12.248611    3.879855    
-71.353516    85.561066    -61.335217    8.555536    9.218393    -83.496452    -5.652175    4.380966    16.164396    -3.759479    -13.647738    13.329766    3.688357    -30.763508    14.793402    -22.760193    1.095628    -6.039016    -3.518233    22.337830    -54.289948    8.353623    -1.580824    -20.948269    105.388962    32.774265    92.989021    9.337059    2.046668    25.190546    10.892366    12.141253    53.641891    5.714196    1.828023    35.615395    -49.941605    -13.328856    -20.192114    15.899404    -22.185375    6.248075    0.698852    3.809610    11.450650    -7.757206    9.155688    2.339882    2.123573    -0.178518    -7.763523    -5.256359    15.197600    -1.624452    14.562787    -12.493116    3.673605    
-71.360741    85.575035    -61.235832    8.652354    9.227210    -83.858101    -5.945465    4.323857    16.283398    -3.804547    -13.755825    13.373063    3.852956    -30.883249    14.894983    -22.655600    1.164018    -6.177324    -3.526378    21.987326    -54.188179    8.476896    -1.580363    -20.695971    105.173424    32.765892    93.377121    9.085455    2.000136    25.511534    10.632231    11.947214    54.033680    5.536883    1.744035    35.220394    -49.600338    -13.546586    -20.318962    15.978742    -22.039845    6.184033    0.633671    3.656531    11.886160    -7.700596    9.143804    2.315713    1.916715    -0.516430    -7.356952    -5.465516    15.734132    -0.707285    13.948961    -12.780499    3.434816    
-71.365639    85.586449    -61.133366    8.754512    9.220426    -84.239731    -6.264425    4.259065    16.399656    -3.862160    -13.861402    13.416097    4.038110    -31.003569    15.004234    -22.554644    1.201708    -6.325585    -3.532469    21.658688    -54.074726    8.575624    -1.575141    -20.444527    104.981285    32.790092    93.770752    8.813418    1.954395    25.858845    10.368553    11.721610    54.440830    5.351435    1.662514    34.791302    -49.276844    -13.780578    -20.449776    16.044008    -21.877037    6.094782    0.568644    3.476427    12.362428    -7.636986    9.142081    2.293929    1.679617    -0.882439    -6.935082    -5.686437    16.329142    0.175741    13.272078    -13.103116    3.160559    
-71.366859    85.593498    -61.031647    8.857738    9.196535    -84.627518    -6.599690    4.188400    16.506334    -3.931886    -13.960513    13.457425    4.241307    -31.116182    15.118195    -22.458138    1.243548    -6.480642    -3.537122    21.328346    -53.950367    8.628217    -1.558076    -20.208939    104.829666    32.861584    94.150734    8.529267    1.911605    26.222816    10.109075    11.472168    54.853275    5.176622    1.576105    34.335094    -49.014248    -14.019200    -20.572613    16.091173    -21.700994    5.982432    0.506573    3.272240    12.862943    -7.566659    9.152916    2.274254    1.416194    -1.265067    -6.522367    -5.910025    16.968002    0.958161    12.548175    -13.446944    2.849450    
-71.363014    85.594711    -60.934673    8.958302    9.155310    -85.006836    -6.940906    4.113438    16.596563    -4.012898    -14.049291    13.495470    4.458592    -31.213793    15.234015    -22.372507    1.273528    -6.640028    -3.526581    21.019075    -53.839417    8.700277    -1.537318    -19.961712    104.665810    32.984890    94.551033    8.246579    1.865014    26.592619    9.852382    11.217330    55.263920    4.998483    1.489329    33.862549    -48.812214    -14.257123    -20.698778    16.117744    -21.517914    5.851383    0.449861    3.048863    13.368896    -7.489640    9.178029    2.255790    1.130898    -1.652072    -6.147890    -6.126579    17.632444    1.571741    11.799226    -13.791128    2.505871    
-71.352890    85.589005    -60.846375    9.052841    9.097795    -85.363640    -7.277772    4.036269    16.664423    -4.101932    -14.126116    13.529917    4.684888    -31.289190    15.349086    -22.299591    1.304777    -6.800735    -3.508156    20.727949    -53.734459    8.742568    -1.531543    -19.723402    104.546867    33.170582    94.905716    7.971269    1.822748    26.958506    9.607869    10.962169    55.666805    4.826962    1.428440    33.377472    -48.683613    -14.489028    -20.836205    16.122969    -21.334883    5.709455    0.400371    2.812897    13.858737    -7.406488    9.217995    2.237685    0.828407    -2.030864    -5.843536    -6.326701    18.301464    1.952057    11.050988    -14.108895    2.143606    
-71.335335    85.575768    -60.770382    9.138745    9.026232    -85.684860    -7.599899    3.958623    16.704279    -4.197914    -14.188562    13.559958    4.915163    -31.338846    15.460319    -22.243067    1.332469    -6.961654    -3.479420    20.466784    -53.644627    8.777556    -1.544000    -19.484194    104.439590    33.415966    95.214867    7.708695    1.792511    27.310854    9.374613    10.711282    56.060184    4.671864    1.380064    32.885784    -48.642292    -14.698807    -20.977631    16.107704    -21.160189    5.566882    0.359424    2.572232    14.310366    -7.318615    9.272719    2.218998    0.513466    -2.389328    -5.641961    -6.502207    18.952106    2.044355    10.332732    -14.370084    1.787420    
-71.309326    85.554848    -60.709946    9.214389    8.943653    -85.959724    -7.898134    3.881940    16.711988    -4.297007    -14.236596    13.586052    5.143035    -31.360092    15.565568    -22.203209    1.367413    -7.120088    -3.446056    20.232037    -53.566498    8.801337    -1.522702    -19.253113    104.306793    33.727833    95.509850    7.471810    1.763979    27.642136    9.142869    10.485934    56.443665    4.521923    1.317271    32.396397    -48.668213    -14.870463    -21.119450    16.074427    -21.002401    5.437038    0.327477    2.335697    14.701184    -7.229120    9.340742    2.199495    0.190863    -2.717063    -5.573943    -6.647707    19.561306    1.810455    9.675793    -14.544990    1.474508    
-71.274094    85.526482    -60.667789    9.278580    8.853506    -86.180290    -8.164485    3.807698    16.684818    -4.398026    -14.269672    13.607758    5.363382    -31.354961    15.663189    -22.180550    1.409138    -7.275173    -3.409503    20.028461    -53.505135    8.822350    -1.483168    -19.022305    104.161102    34.109474    95.771446    7.264494    1.741361    27.945902    8.920697    10.293036    56.813892    4.384601    1.264017    31.909809    -48.729591    -14.995106    -21.266356    16.026867    -20.869305    5.335145    0.304195    2.112304    15.010132    -7.142878    9.419456    2.179333    -0.134543    -3.005214    -5.664410    -6.760864    20.107071    1.232660    9.113535    -14.607475    1.252575    
